<svg xmlns="http://www.w3.org/2000/svg" width="659" height="224" viewBox="-56.1 -56 659 224">
    <g xmlns:cc="http://creativecommons.org/ns#" xmlns:rdf="http://www.w3.org/1999/02/22-rdf-syntax-ns#" xmlns:svg="http://www.w3.org/2000/svg" xmlns:dc="http://purl.org/dc/elements/1.1/">
        <path fill="#FFF" d="M370.3 92.6a11 11 0 002.3.2 33.4 33.4 0 002.4-.2v-17a27.1 27.1 0 0015.7-.2 16.4 16.4 0 0010-10.3c.8-2.5 1.2-5.3 1.2-8.4 0-3.2-.4-5.8-1.1-8-.7-2.3-1.8-4.1-3.1-5.6s-3-2.5-4.8-3.2a17.9 17.9 0 00-13.5.7 14 14 0 00-4.4 4l-.4-4.9a10 10 0 00-2.2-.1 19.2 19.2 0 00-2.1.1v53zm4.7-37.8c0-2.3.4-4.1 1.1-5.6a10.1 10.1 0 016.5-5.6c1.4-.4 2.6-.6 3.8-.6 3.7 0 6.3 1.3 8 3.7 1.6 2.5 2.5 5.9 2.5 10.2 0 2.8-.4 5.1-1.1 7.1s-1.7 3.6-3 4.9a11.3 11.3 0 01-4.3 2.8 16 16 0 01-5.4.8c-2 0-3.5 0-4.7-.3-1.1-.2-2.3-.5-3.4-1V54.9zm57.8 17a48.6 48.6 0 01-8 .8c-1.1 0-2.3 0-3.4-.2a10 10 0 01-3.2-1 6 6 0 01-2.3-2.2 7 7 0 01-.9-3.8c0-2.4 1-4.3 3-5.6 2-1.3 4.7-2 8.3-2a36.7 36.7 0 016.5.5v13.5zm0-17.6a135.1 135.1 0 00-7.5-.5c-2.2 0-4.3.2-6.1.8-1.8.5-3.4 1.2-4.7 2.3a10.8 10.8 0 00-4.2 8.8c0 4 1.2 6.8 3.8 8.5 2.6 1.8 6 2.6 10.5 2.6 2.2 0 4.5-.1 6.9-.5l6-1V51.3c0-4.3-1-7.4-3.3-9.4s-5.7-3-10.4-3a39.7 39.7 0 00-10.2 1.3 11.1 11.1 0 00.9 4.1A33 33 0 01424 43c3 0 5.1.7 6.6 2.1 1.5 1.5 2.2 3.8 2.2 6.9v2.2zm16.7 21.7h1.2a29 29 0 003.6 0V57.3c0-4.7 1-8.1 2.9-10.1 2-2 4.6-3.1 7.8-3.1h1.7a11 11 0 000-4.4H465c-2.9 0-5.1.5-6.9 1.7a13 13 0 00-4 4.5 80.3 80.3 0 00-.3-6.2 19.5 19.5 0 00-4.3 0V76zm26.8-8.5c0 3.3.9 5.7 2.6 7a10 10 0 006.6 2.3 21 21 0 006-.8c0-1.4-.3-2.8-.6-4a13.6 13.6 0 01-6.4.5 4 4 0 01-1.7-.8 4 4 0 01-1.3-1.6c-.3-.7-.4-1.6-.4-2.8V43.7h9.9l.1-1a17.8 17.8 0 00-.1-3h-10V28.6h-.2l-4.5 4.3v6.8h-6.2l-.1.9a14.8 14.8 0 000 3h6.3v23.8zm52-8.9a28.4 28.4 0 00-.9-9.9c-.6-2-1.6-3.7-2.9-5.2a13 13 0 00-4.7-3.3 16 16 0 00-6.4-1.2 17 17 0 00-7.4 1.4c-2 1-3.7 2.4-5 4.2-1.4 1.7-2.3 3.7-3 6s-1 4.9-1 7.5c0 2.7.4 5.3 1 7.6a14.7 14.7 0 008.8 9.8c2.4.9 5.1 1.3 8.3 1.3 2.2 0 4.2-.1 6-.5 2-.3 3.6-.8 5-1.4l-.3-2c-.1-.8-.3-1.4-.6-2a33.6 33.6 0 01-9.6 1.7c-4.5 0-7.9-1.1-10.1-3.4-2.3-2.2-3.4-5.8-3.4-10.6h26.1zm-26-3.9c.3-3.7 1.4-6.5 3.3-8.6 1.9-2 4.5-3 7.8-3 1.9 0 3.4.3 4.7 1 1.3.6 2.4 1.5 3.2 2.6.8 1 1.4 2.3 1.8 3.7.3 1.4.5 2.8.5 4.3h-21.4zM541 75.9h1.3a28.6 28.6 0 003.5 0V39.7h-9.4v1a18 18 0 000 3h4.6v32.2zm-.7-45a42.3 42.3 0 004.4 0 21.2 21.2 0 00.2-3.2 40.5 40.5 0 00-.2-2.8 19.1 19.1 0 00-2.9-.2 40.3 40.3 0 00-3.1.2 18.6 18.6 0 00-.2 2.8v1.6l.2 1.5 1.6.1M128.3 92.7a27.7 27.7 0 005.1.3 45.3 45.3 0 005.1-.3V76.4a24 24 0 004.4.3c3.2 0 6-.4 8.5-1.4a16.9 16.9 0 0010.3-10.1c.9-2.4 1.3-5.2 1.3-8.3 0-3.1-.3-5.9-1-8.2-.8-2.3-1.9-4.2-3.2-5.8-1.3-1.5-3-2.6-4.7-3.4a14.8 14.8 0 00-9.5-.6c-1 .3-2 .8-3 1.4a10 10 0 00-2.2 2c-.6.7-1.2 1.4-1.6 2.2l-.2-1.3a18.7 18.7 0 00-1-4 20.4 20.4 0 00-8.3 0v53.5zm10.2-37.1c0-1.2.1-2.3.4-3.3.2-1 .6-2 1.1-2.8.6-.8 1.2-1.4 2-1.8 1-.5 2-.7 3.1-.7 1.3 0 2.4.3 3.3.8.9.5 1.6 1.2 2.2 2.1.6 1 1 2 1.2 3.2.3 1.3.4 2.7.4 4.1 0 3.9-.8 6.7-2.4 8.6-1.6 1.9-3.8 2.8-6.8 2.8a16 16 0 01-4.5-.5V55.6zM173 75.9a30.6 30.6 0 0010 0V39.2h-14.8a16.5 16.5 0 000 7.7h4.8v29zm1.2-42.6a50.8 50.8 0 007.8-.3 20.7 20.7 0 00.4-4.7 40.3 40.3 0 00-.4-4.8 27.3 27.3 0 00-7.8-.3c-1 0-1.9.2-2.7.3a27.9 27.9 0 000 9.5c.8.2 1.7.3 2.7.3M193 76a26.8 26.8 0 005.1.4 47.4 47.4 0 005.1-.4V58.5c0-2.6.3-4.5 1-6s1.3-2.4 2.2-3.1c.9-.8 1.8-1.2 2.9-1.4l2.7-.2h1.2l1.7.1a35.7 35.7 0 00.2-8.9L214 39l-1.7-.1c-2.3 0-4.2.6-5.7 1.7a18.5 18.5 0 00-4 4 155.7 155.7 0 01-.7-4.2c0-.4-.2-.8-.4-1a29.3 29.3 0 00-4.1-.5 19.8 19.8 0 00-4.2.4V76zm46.7-7.5a98.5 98.5 0 01-4 .5h-2.2a8 8 0 01-2.4-.6c-.7-.4-1.3-.8-1.9-1.5-.5-.7-.7-1.6-.7-2.8 0-1.9.6-3.2 2-4 1.4-.9 3.2-1.3 5.6-1.3a16.5 16.5 0 013.6.4v9.3zm0-15.8l-4.6-.2c-1.9 0-3.8.2-5.7.6-2 .4-3.7 1-5.2 2a10.4 10.4 0 00-5.3 9.4c0 2.3.4 4.2 1.2 5.7a10 10 0 003.4 3.9c1.4 1 3.2 1.7 5.2 2a42.1 42.1 0 0021-1.6V53.4c0-5.2-1.4-9-4.2-11.4s-6.7-3.5-11.7-3.5a38.3 38.3 0 00-12.3 2 13.3 13.3 0 002 7.4 25.7 25.7 0 0111.6-1.3c1 .2 1.8.4 2.5.8s1.2 1 1.6 1.7c.3.7.5 1.6.5 2.8v.8zm20 10.9c0 4.5 1.2 7.8 3.5 9.8 2.3 2 5.6 3 10 3 2.3 0 4.6-.3 6.8-.8a14.8 14.8 0 000-5l-.8-2.7a138.3 138.3 0 01-4 .5c-.9 0-1.6-.1-2.3-.3-.7-.2-1.2-.5-1.7-1-.5-.6-.8-1.3-1-2.2-.3-.9-.4-2-.4-3.5V46.9h8.7a19.2 19.2 0 000-7.7h-8.7V28.5h-1.7l-13.4 17 .4 1.4h4.6v16.6zm58.6-2.9a21.6 21.6 0 00.3-4.7c0-2.5-.3-4.8-1-7-.8-2-1.8-4-3.3-5.5a15.2 15.2 0 00-5.1-3.7c-2-.9-4.3-1.3-6.9-1.3-3 0-5.6.5-7.8 1.5a16.1 16.1 0 00-9 10.3 24.7 24.7 0 000 15.2c.7 2.3 1.8 4.3 3.4 6 1.5 1.7 3.6 3 6 4a35.4 35.4 0 0021.5-.7 17.2 17.2 0 00-2-7.8 29 29 0 01-9.8 1.8c-3 0-5.4-.6-7.2-1.9-1.8-1.3-2.8-3.3-3-6.2h23.9zm-23.8-7c.2-2.4 1-4.3 2.2-5.6 1.2-1.3 3-2 5.5-2a6 6 0 014.9 2.1 8.9 8.9 0 011.9 5.5h-14.5zm32.2 22.3a31.5 31.5 0 0010.2 0V56.7c0-2 .2-3.6.6-4.9.5-1.2 1-2.2 1.7-2.8.7-.7 1.5-1.2 2.4-1.4.8-.3 1.7-.4 2.5-.4 2 0 3.3.7 4.1 2a12 12 0 011.2 6v20.7a31.4 31.4 0 0010.2 0V52.5c0-4.9-1-8.5-3.2-10.7-2.1-2.3-5.3-3.4-9.5-3.4a12 12 0 00-6.7 1.9c-.9.5-1.6 1.2-2.3 1.9-.7.7-1.3 1.4-1.7 2.1a947.9 947.9 0 00-.8-4c-.1-.5-.2-.9-.4-1a20.7 20.7 0 00-8.3 0v36.6zM104.9 56a47.8 47.8 0 01-48.1 47.5C30.2 103.5 8.7 82.2 8.7 56s21.5-47.4 48-47.4A47.8 47.8 0 01105 56"/>
        <path fill="#231F20" d="M56.8 5A51.3 51.3 0 005 56c0 28.2 23.1 51 51.7 51a51.4 51.4 0 0051.7-51c0-28.1-23.2-51-51.7-51m0 96.8A46 46 0 0110.4 56a46 46 0 0146.4-45.7A46 46 0 01103.2 56a46 46 0 01-46.4 45.8"/>
        <path fill="#231F20" d="M78.9 30.6a51.2 51.2 0 00-36.3-3.4v-4.7h-4.9v6.2c-2 .7-4 1.5-5.6 2.5 0 0 2.4-.3 5.6-.1v41.5c-2.4 3.6-3 7.1-2.4 11.2.7 4.6 4.2 7.7 7 10A23.2 23.2 0 0141 82.3c.9-4.8 3.7-8.2 15.9-10.8 12.6-2.7 27.6-3.9 32.5-16 2.2-5.5 3.6-17.1-10.5-25M49.4 62c-2.7 1.8-5 3.6-6.8 5.2V31.7c3.7.8 7.7 2.4 10.5 5.6 6.7 7.8 4.4 19-3.7 24.6"/>
        <path fill="#231F20" d="M1 56C1 25.6 26 1 56.8 1a55.4 55.4 0 0155.8 55c0 30.4-25 55-55.8 55A55.4 55.4 0 011 56m17-38.2a53.5 53.5 0 000 76.4A55 55 0 00111.7 56c0-14.9-6.2-28.4-16-38.2a55 55 0 00-77.5 0"/>
    </g>
</svg>
